<?xml version='1.0' encoding='utf-8'?>
<svg xmlns:xlink="http://www.w3.org/1999/xlink" xmlns="http://www.w3.org/2000/svg" viewBox="0 0 327.06 323.64"> <defs> <clipPath id="a"> <path d="m372.84 260.94c-117.5 0-212.84 95.347-212.84 212.84s95.347 212.88 212.84 212.88 212.88-95.378 212.88-212.88-95.378-212.84-212.88-212.84zm0 160c29.177 0 52.875 23.667 52.875 52.844s-23.698 52.875-52.875 52.875-52.844-23.698-52.844-52.875 23.667-52.844 52.844-52.844z"/> </clipPath> <filter id="f" x="-.30296" y="-.10228" width="1.6059" height="1.2046"> <feGaussianBlur stdDeviation="18.14359"/> </filter> <filter id="g" x="-.17762" y="-.10558" width="1.3552" height="1.2112"> <feGaussianBlur stdDeviation="18.14359"/> </filter> <filter id="h" x="-.13204" y="-.12123" width="1.2641" height="1.2425"> <feGaussianBlur stdDeviation="18.14359"/> </filter> <filter id="i" x="-.1086" y="-.15457" width="1.2172" height="1.3091"> <feGaussianBlur stdDeviation="18.14359"/> </filter> <linearGradient id="b"> <stop stop-color="#7c7c7c" offset="0"/> <stop stop-color="#c6c6c6" offset="1"/> </linearGradient> <linearGradient id="c" x1="390.2" x2="213.74" y1="473.8" y2="368.66" gradientUnits="userSpaceOnUse" spreadMethod="reflect"> <stop stop-color="#6f6f6f" offset="0"/> <stop stop-color="#f5f5f5" offset="1"/> </linearGradient> <linearGradient id="e" x1="162.6" x2="232.27" y1="486.61" y2="493.01" gradientUnits="userSpaceOnUse" spreadMethod="reflect" xlink:href="#b"/> <linearGradient id="d" x1="168.09" x2="237.76" y1="485.69" y2="492.1" gradientUnits="userSpaceOnUse" spreadMethod="reflect" xlink:href="#b"/> </defs> <g transform="matrix(.74601 0 0 .74601 -121.3 -200.85)"> <path d="m379.05 273.75c-117.5 0-212.84 95.347-212.84 212.84s95.347 212.88 212.84 212.88 212.88-95.378 212.88-212.88-95.378-212.84-212.88-212.84zm0 160c29.177 0 52.875 23.667 52.875 52.844s-23.698 52.875-52.875 52.875-52.844-23.698-52.844-52.875 23.667-52.844 52.844-52.844z" fill="none" stroke="url(#e)" stroke-linejoin="round" stroke-width="7.2"/> <path d="m384.54 272.83c-117.5 0-212.84 95.347-212.84 212.84s95.347 212.88 212.84 212.88 212.88-95.378 212.88-212.88-95.378-212.84-212.88-212.84zm0 160c29.177 0 52.875 23.667 52.875 52.844s-23.698 52.875-52.875 52.875-52.844-23.698-52.844-52.875 23.667-52.844 52.844-52.844z" fill="none" stroke="url(#d)" stroke-linejoin="round" stroke-width="7.2"/> <path transform="translate(8.9468 11.896)" d="m372.84 260.94c-117.5 0-212.84 95.347-212.84 212.84s95.347 212.88 212.84 212.88 212.88-95.378 212.88-212.88-95.378-212.84-212.88-212.84zm0 160c29.177 0 52.875 23.667 52.875 52.844s-23.698 52.875-52.875 52.875-52.844-23.698-52.844-52.875 23.667-52.844 52.844-52.844z" clip-path="url(#a)" fill="url(#c)"/> <path transform="matrix(.99712 .075845 -.075845 .99712 45.949 -14.845)" d="m328.93 254.86 41.517 216.98 87.629 202.8-45.856 14.108-41.516-216.98-87.629-202.8 45.856-14.108z" clip-path="url(#a)" fill="#f00" filter="url(#f)" opacity=".27099"/> <path transform="matrix(.99994 -.011097 .011097 .99994 3.7343 16.037)" d="m293.55 264.71 76.903 207.15 120.65 185.11-43.505 21.91-76.903-207.15-120.65-185.11 43.505-21.91z" clip-path="url(#a)" fill="#ff0" filter="url(#g)" opacity=".27099"/> <path transform="matrix(.99501 -.09973 .09973 .99501 -36.224 51.154)" d="m260.93 279.9 109.53 191.98 149.01 163.06-38.263 28.03-110.53-191.25-150.01-162.32 40.263-29.495z" clip-path="url(#a)" fill="#0f0" filter="url(#h)" opacity=".27099"/> <path transform="matrix(.97849 -.20631 .20631 .97849 -80.326 98.389)" d="m233.04 298.24 137.44 173.65 176.43 133.57-37.827 38.893-138.41-172.65-177.4-132.57 39.772-40.893z" clip-path="url(#a)" fill="#00f" filter="url(#i)" opacity=".27099"/> <path transform="matrix(.88601 0 0 .88601 29.475 60.037)" d="m471.43 480.93a74.286 74.286 0 1 1-148.57 0 74.286 74.286 0 1 1 148.57 0z" fill="none" opacity=".38931" stroke="#d2d2d2" stroke-linejoin="round" stroke-width="20"/> </g> </svg>