<?xml version="1.0" encoding="UTF-8"?>
<svg id="Layer_2" data-name="Layer 2" xmlns="http://www.w3.org/2000/svg" viewBox="0 0 273.67 274.91">
  <defs>
    <style>
      .cls-1 {
        fill: #044bb2;
      }
    </style>
  </defs>
  <g id="Layer_1-2" data-name="Layer 1">
    <g>
      <path class="cls-1" d="M192.58,78.23c0-12.86-9.22-25.49-28.4-25.49h-6.31v51.7h6.31c18.93,0,28.4-13.11,28.4-26.21Z"/>
      <path class="cls-1" d="M267.67,130.2h0l-.14-1.92c-1.18-15.99-14.17-28.55-30.19-29.2l-.96-.04h0c-.67-16.43-13.83-29.59-30.25-30.26h0s0,0,0,0c-.66-16.42-13.83-29.59-30.25-30.25h0c-.66-16.43-13.83-29.59-30.25-30.25h0s-.62-2.42-.62-2.42c-1.99-7.81-13.08-7.81-15.07,0l-.62,2.43h0c-16.42.67-29.58,13.83-30.25,30.25h0s0,0,0,0c-8.37.34-15.89,3.93-21.34,9.54h-18.58v6.67h12.92c.24,0,.46.01.69.02-2.32,4.18-3.73,8.95-3.93,14.03h0s0,0,0,0c-16.42.67-29.59,13.83-30.25,30.25h0c-16.42.67-29.59,13.83-30.25,30.25h0s-2.42.62-2.42.62c-7.81,1.99-7.81,13.08,0,15.07l2.43.62h0c.67,16.43,13.83,29.59,30.25,30.26h0s0,0,0,0c.67,16.42,13.83,29.58,30.25,30.25h0s0,0,0,0c.21,5.08,1.61,9.84,3.93,14.02-.23,0-.45.02-.69.02h-12.92v6.67h18.59c5.45,5.61,12.97,9.2,21.35,9.54h0c.66,16.43,13.83,29.59,30.25,30.25h0s.62,2.42.62,2.42c1.99,7.81,13.08,7.81,15.07,0l.62-2.43h0c16.42-.67,29.58-13.83,30.25-30.25h0s0,0,0,0c16.42-.67,29.58-13.83,30.25-30.25h0s0,0,0,0c3.59-.15,7.03-.89,10.22-2.14,2.74,4.03,5.5,7.49,8.39,10.36,8.8,8.76,18.91,12.49,33.83,12.49.26,0,.52,0,.78,0l1.98-.02v-6.61l-1.96-.04c-14.93-.32-21.28-3.59-32.26-23.22,5.45-5.43,8.93-12.85,9.26-21.08h0c16.42-.67,29.59-13.83,30.25-30.25h0s1.18-.31,1.18-.31c7.88-2.01,7.78-13.25-.15-15.11ZM143.63,224.84h-67.72s0,0,0,0h-14.8v-2.67h10.92c9.71,0,12.14-3.4,12.14-15.53V68.28c0-12.14-2.43-15.53-12.14-15.53h-10.92v-2.67h55.83v2.67h-10.92c-9.71,0-12.14,3.4-12.14,15.53v153.88h31.55c14.56,0,18.2-8.98,20.39-18.45l4.13-17.48,2.67.24-8.98,38.35ZM183.88,224.84c-4.05-11.07-7.34-14.35-18.4-18.4,11.07-4.05,14.35-7.34,18.4-18.4,4.05,11.07,7.34,14.35,18.4,18.4-11.07,4.05-14.35,7.34-18.4,18.4ZM259.33,222.17v2.67h0c-.26,0-.51,0-.77,0-.32,0-.63-.01-.95-.01-27.58-.31-38-13.94-57.26-54.84l-30.1-63.83c-1.94.24-3.88.24-6.07.24h-6.31v48.43c0,12.14,2.43,15.53,12.14,15.53h10.92v2.67h-55.83v-2.67h10.92c9.71,0,12.14-3.4,12.14-15.53v-86.54c0-12.14-2.43-15.53-12.14-15.53h-10.92v-2.67h39.08c25.24,0,38.83,14.56,38.83,29.13,0,10.68-7.52,21.12-23.06,25.24l29.61,62.14c22.82,47.33,27.43,55.1,49.76,55.58Z"/>
    </g>
  </g>
</svg>