<?xml version="1.0" encoding="UTF-8"?>
<svg id="Layer_2" data-name="Layer 2" xmlns="http://www.w3.org/2000/svg" viewBox="0 0 276.54 277.78">
  <defs>
    <style>
      .cls-1 {
        fill: #044bb2;
      }
    </style>
  </defs>
  <g id="Layer_1-2" data-name="Layer 1">
    <g>
      <g>
        <path class="cls-1" d="M74.49,222.29c9.56,0,11.95-3.35,11.95-15.29V70.79c0-11.95-2.39-15.29-11.95-15.29h-10.75v-2.63h54.96v2.63h-10.75c-9.56,0-11.95,3.35-11.95,15.29v151.5h31.06c14.34,0,17.92-8.84,20.07-18.16l4.06-17.2,2.63.24-8.84,37.75H63.73v-2.63h10.75Z"/>
        <path class="cls-1" d="M126.73,55.49v-2.63h38.47c24.85,0,38.23,14.34,38.23,28.67,0,10.51-7.41,20.79-22.7,24.85l29.15,61.17c22.46,46.6,27,54.24,48.99,54.72v2.63c-28.44.24-38.71-12.9-58.07-54l-29.63-62.85c-1.91.24-3.82.24-5.97.24h-6.21v47.68c0,11.95,2.39,15.29,11.95,15.29h10.75v2.63h-54.96v-2.63h10.75c9.56,0,11.95-3.35,11.95-15.29v-85.2c0-11.95-2.39-15.29-11.95-15.29h-10.75ZM165.21,106.39c18.64,0,27.96-12.9,27.96-25.81s-9.08-25.09-27.96-25.09h-6.21v50.9h6.21Z"/>
        <path class="cls-1" d="M202.72,206.8c-10.9,3.99-14.13,7.22-18.12,18.12-3.99-10.9-7.22-14.13-18.12-18.12,10.9-3.99,14.13-7.22,18.12-18.12,3.99,10.9,7.22,14.13,18.12,18.12Z"/>
      </g>
      <g>
        <path class="cls-1" d="M211.83,205.44c-.09-.13-.17-.26-.26-.4-1.39.26-2.8.43-4.25.49h-1.71s-.07,1.76-.07,1.76c-.62,15.3-13.08,27.78-28.38,28.41h-1.72s-.07,1.76-.07,1.76c-.62,15.31-13.1,27.79-28.47,28.42l-1.32.09-.94,3.7c-.84,3.29-3.62,4.46-5.74,4.46s-4.9-1.17-5.74-4.46l-.92-3.6-1.21-.17-.18-.02c-15.3-.62-27.77-13.08-28.41-28.38v-1.72l-1.75-.07c-5.51-.22-10.65-1.99-15.01-4.87-1.95.03-3.9.1-5.86.18,5.32,4.72,11.98,7.6,19.07,8.24.7,7.76,4.07,15.01,9.62,20.55,5.61,5.61,12.96,9,20.83,9.64l.29,1.13c1.1,4.31,4.83,7.21,9.28,7.21s8.18-2.9,9.28-7.21l.29-1.13c7.87-.64,15.22-4.03,20.83-9.64,5.54-5.54,8.92-12.79,9.62-20.55,7.77-.7,15.01-4.07,20.55-9.62,5.55-5.55,8.93-12.8,9.62-20.55,1.67-.15,3.31-.43,4.92-.82-.77-.9-1.5-1.83-2.17-2.81Z"/>
        <path class="cls-1" d="M72.25,205.54h-1.79c-15.28-.64-27.74-13.09-28.38-28.38v-1.64s-1.68-.14-1.68-.14h-.08c-15.31-.63-27.79-13.11-28.41-28.41l-.04-1.37-3.75-.96c-3.29-.84-4.46-3.62-4.46-5.75s1.17-4.9,4.46-5.74l3.74-.96.05-1.36c.62-15.31,13.1-27.79,28.41-28.41l1.69-.27.06-1.48c.62-15.3,13.08-27.78,28.38-28.41h1.71s.07-1.76.07-1.76c.13-3.22.8-6.3,1.89-9.18-1.31-.02-2.62,0-3.92.04-.78,2.37-1.28,4.84-1.51,7.36-7.76.7-15.01,4.08-20.55,9.62-5.54,5.54-8.92,12.79-9.62,20.55-7.76.7-15.01,4.07-20.55,9.62-5.62,5.62-9.01,12.99-9.64,20.83l-1.13.29C2.9,130.71,0,134.44,0,138.89c0,4.45,2.9,8.18,7.21,9.28l1.13.29c.64,7.87,4.03,15.22,9.64,20.83,5.54,5.54,12.79,8.92,20.55,9.62.7,7.77,4.07,15.01,9.62,20.55,5.54,5.54,12.79,8.92,20.55,9.62.17,1.93.52,3.83,1.02,5.68,1.19-.07,2.38-.15,3.57-.27.02,0,.03,0,.05,0,.04,0,.07,0,.11-.01-.68-2.28-1.1-4.68-1.2-7.14v-1.79Z"/>
        <path class="cls-1" d="M270.46,130.28l-.05-.67c-1.23-16.65-14.57-29.77-31.17-30.77-.7-7.75-4.08-14.99-9.61-20.52-5.54-5.54-12.79-8.92-20.55-9.62-.7-7.76-4.08-15.01-9.62-20.55-5.54-5.54-12.79-8.92-20.55-9.62-.7-7.76-4.07-15.01-9.62-20.55-5.61-5.61-12.96-9-20.83-9.64l-.29-1.13c-1.1-4.31-4.83-7.21-9.28-7.21s-8.18,2.9-9.28,7.21l-.29,1.13c-7.87.64-15.22,4.03-20.83,9.64-5.54,5.54-8.92,12.79-9.62,20.55-6.76.61-13.13,3.25-18.32,7.58,2.12-.03,4.24-.03,6.36.05,4.08-2.42,8.76-3.89,13.76-4.09l1.69-.18.06-1.58c.62-15.3,13.08-27.77,28.38-28.41h1.39l.97-3.8c.84-3.29,3.62-4.46,5.74-4.46s4.9,1.17,5.74,4.46l.97,3.79h1.38c15.3.64,27.76,13.11,28.38,28.41l.14,1.69,1.61.07c15.3.62,27.78,13.08,28.42,28.38v1.79h1.79c15.3.64,27.76,13.11,28.38,28.45l.09,1.66,2.62.11c15.06.61,27.25,12.4,28.36,27.43l.24,3.25,1.3.31c3.34.78,4.55,3.57,4.57,5.71.02,2.15-1.14,4.95-4.46,5.8l-2.49.64-.05,1.36c-.62,15.3-13.08,27.77-28.38,28.41h-1.72l-.07,1.75c-.24,5.95-2.28,11.47-5.58,16.04.58.92,1.15,1.85,1.68,2.8.12.21.25.42.37.64,4.03-5.07,6.49-11.19,7.07-17.68,7.76-.7,15.01-4.07,20.55-9.62,5.62-5.62,9.01-12.99,9.64-20.83,4.29-1.15,7.14-4.89,7.1-9.35-.04-4.03-2.43-7.43-6.08-8.83Z"/>
      </g>
    </g>
  </g>
</svg>